<?xml version="1.0" encoding="UTF-8" standalone="no"?>
<svg
   xmlns:dc="http://purl.org/dc/elements/1.1/"
   xmlns:cc="http://creativecommons.org/ns#"
   xmlns:rdf="http://www.w3.org/1999/02/22-rdf-syntax-ns#"
   xmlns:svg="http://www.w3.org/2000/svg"
   xmlns="http://www.w3.org/2000/svg"
   viewBox="0 0 1266.6667 666.66669"
   height="666.66669"
   width="1266.6667"
   xml:space="preserve"
   id="svg2"
   version="1.1"><metadata
     id="metadata8"><rdf:RDF><cc:Work
         rdf:about=""><dc:format>image/svg+xml</dc:format><dc:type
           rdf:resource="http://purl.org/dc/dcmitype/StillImage" /></cc:Work></rdf:RDF></metadata><defs
     id="defs6"><clipPath
       id="clipPath20"
       clipPathUnits="userSpaceOnUse"><path
         id="path18"
         d="m 925.512,4466.36 c -146.028,-11.88 -282.129,-97.68 -385.93,-201.08 -103.785,-103.4 -158.918,-268.92 -94.859,-400.69 29.601,-60.87 81.457,-108.97 139.918,-143.07 100.699,-58.75 231.281,-76.75 333.968,-21.57 109.191,58.68 168.011,186.12 276.991,245.22 60.08,32.6 129.7,41.22 196.81,54.16 95.79,18.49 192.66,48.45 266.9,111.74 74.24,63.27 121.13,166.22 95.2,260.25 -27.8,100.92 -131.61,166.06 -235.32,180.21 -103.72,14.13 -208.2,-12.67 -309.18,-40.23 -100.98,-27.56 -203.98,-38.4 -284.498,-44.94" /></clipPath><linearGradient
       id="linearGradient26"
       spreadMethod="pad"
       gradientTransform="matrix(1344.38,0,0,-1344.38,417.337,4111.08)"
       gradientUnits="userSpaceOnUse"
       y2="0"
       x2="1"
       y1="0"
       x1="0"><stop
         id="stop22"
         offset="0"
         style="stop-opacity:1;stop-color:#1eb6e2" /><stop
         id="stop24"
         offset="1"
         style="stop-opacity:1;stop-color:#9859b3" /></linearGradient><clipPath
       id="clipPath36"
       clipPathUnits="userSpaceOnUse"><path
         id="path34"
         d="m 2540.33,4590.59 c -43.86,-17.79 -98.42,-59.16 -126.77,-108.13 -34.55,-59.66 24.6,-131.21 23.94,-200.16 -0.5,-52.93 -37.8,-99.87 -83.07,-127.3 -45.27,-27.44 -98.02,-39.14 -149.42,-51.79 -66.6,-16.4 -133.66,-35.51 -191.94,-71.67 -58.28,-36.17 -107.53,-91.8 -121.85,-158.87 -16.03,-75.12 13.22,-152.8 52.69,-218.69 24.11,-40.27 54.73,-80.12 98.69,-96.58 86.38,-32.35 176.53,37.35 268.56,43.81 112.68,7.91 207.39,-77.92 311.88,-120.83 152.32,-62.54 332.15,-30.5 472.94,54.91 79.46,48.21 151.04,115.42 185.09,201.9 34.04,86.49 23.81,193.95 -41.04,260.53 -64.48,66.2 -163.81,79.4 -252.87,104.01 -89.06,24.61 -186.06,79.51 -196.44,171.33 -6.22,55.05 21.17,107.46 38.07,160.22 16.9,52.76 19.84,119.26 -22.77,154.68 -19.15,15.92 -44.32,22.45 -68.92,26.37 -77.08,12.28 -154.77,-6.72 -196.77,-23.74" /></clipPath><linearGradient
       id="linearGradient44"
       spreadMethod="pad"
       gradientTransform="matrix(1413.4,0,0,-1413.4,1886.75,4032.97)"
       gradientUnits="userSpaceOnUse"
       y2="0"
       x2="1"
       y1="0"
       x1="0"><stop
         id="stop38"
         offset="0"
         style="stop-opacity:1;stop-color:#9359b3" /><stop
         id="stop40"
         offset="0.00104345"
         style="stop-opacity:1;stop-color:#9359b3" /><stop
         id="stop42"
         offset="1"
         style="stop-opacity:1;stop-color:#f796bb" /></linearGradient><clipPath
       id="clipPath54"
       clipPathUnits="userSpaceOnUse"><path
         id="path52"
         d="m 3749.01,4594.4 c -147.73,13.81 -277.6,-23.46 -362.97,-155.95 -26.36,-40.91 -45.49,-94.99 -37.65,-147.84 11.24,-75.44 71.78,-119.34 128.55,-134.26 143.6,-37.74 292.15,42.56 437.26,16.98 92.45,-16.29 177.44,-74.48 267.24,-107.91 179.48,-66.79 379.5,-29.22 538.01,101.06 49.34,40.56 96.38,92.38 119.77,162.93 23.38,70.55 16.89,162.98 -27.67,212.36 -23.73,26.27 -54.8,37.58 -85.28,44.09 -225.1,48.11 -453.43,-127.14 -677.5,-71.32 -126.82,31.59 -239.22,74.2 -299.76,79.86" /></clipPath><linearGradient
       id="linearGradient60"
       spreadMethod="pad"
       gradientTransform="matrix(1505.88,0,0,-1505.88,3346.61,4315.04)"
       gradientUnits="userSpaceOnUse"
       y2="0"
       x2="1"
       y1="0"
       x1="0"><stop
         id="stop56"
         offset="0"
         style="stop-opacity:1;stop-color:#fcd444" /><stop
         id="stop58"
         offset="1"
         style="stop-opacity:1;stop-color:#f24bae" /></linearGradient><clipPath
       id="clipPath70"
       clipPathUnits="userSpaceOnUse"><path
         id="path68"
         d="m 4385.7,3616.97 c -41.12,0.78 -81.09,11.3 -118.71,27.91 -58.37,25.76 -127.71,27.94 -189.96,10.82 -82.98,-22.81 -154.72,-75.89 -215.58,-136.73 -72.07,-72.08 -134.01,-161.4 -131.22,-267.61 1.2,-45.89 16.84,-90.85 47.01,-125.45 75.16,-86.22 182.73,-55.1 279.9,-67.33 102.48,-12.89 193.59,-75.53 260.75,-153.99 67.14,-78.48 113.34,-172.36 157.18,-265.87 17.87,-38.1 39,-79.77 78.29,-94.82 20.99,-8.05 44.26,-7.1 66.61,-4.62 240.38,26.68 447.84,236.11 472.21,476.76 24.38,240.65 -136.86,487.43 -367.03,561.77 -93.23,30.11 -192.6,33.99 -290.51,37.62 -16.8,0.63 -33.58,1.25 -48.94,1.54" /></clipPath><radialGradient
       id="radialGradient76"
       spreadMethod="pad"
       gradientTransform="matrix(770.105,595.548,595.548,-770.105,4117.44,2837.34)"
       gradientUnits="userSpaceOnUse"
       r="1"
       cy="0"
       cx="0"
       fy="0"
       fx="0"><stop
         id="stop72"
         offset="0"
         style="stop-opacity:1;stop-color:#864aaa" /><stop
         id="stop74"
         offset="1"
         style="stop-opacity:1;stop-color:#82d5ce" /></radialGradient><clipPath
       id="clipPath86"
       clipPathUnits="userSpaceOnUse"><path
         id="path84"
         d="m 935.602,3389.58 c -6.676,6.24 -20.657,12.29 -38.543,17.6 -88.024,26.15 -182.993,11.24 -261.246,-36.82 -69.344,-42.6 -148.833,-101.96 -209.243,-201.45 -85.949,-141.53 -95.73,-326.41 -25.199,-476.23 43.289,-91.93 140.176,-177.77 236.883,-146.56 72.723,23.47 110.254,101.01 147.559,167.71 37.304,66.71 97.886,137.07 173.734,127.63 87.263,-10.89 123.433,-113.91 177.903,-182.95 79.64,-100.92 226.58,-137.34 348.9,-97.81 122.33,39.54 216.9,146.96 254.56,269.87 37.66,122.91 21.98,258.6 -29.16,376.54 -44.93,103.61 -120.05,198.07 -222.62,245.28 -119.82,55.17 -279.23,34.49 -354.97,-81.68 -23.18,-35.57 -63.5,-57.84 -105.86,-54.9 -50.484,3.49 -58.96,42.18 -92.698,73.77" /></clipPath><linearGradient
       id="linearGradient94"
       spreadMethod="pad"
       gradientTransform="matrix(1407.16,0,0,-1407.16,354.558,3010.6)"
       gradientUnits="userSpaceOnUse"
       y2="0"
       x2="1"
       y1="0"
       x1="0"><stop
         id="stop88"
         offset="0"
         style="stop-opacity:1;stop-color:#1bb18f" /><stop
         id="stop90"
         offset="0.00626237"
         style="stop-opacity:1;stop-color:#1bb18f" /><stop
         id="stop92"
         offset="1"
         style="stop-opacity:1;stop-color:#2cbbe4" /></linearGradient><clipPath
       id="clipPath104"
       clipPathUnits="userSpaceOnUse"><path
         id="path102"
         d="m 2972.91,3266.5 c -50.62,4.17 -100.06,15.97 -147.55,33.96 -132.61,50.28 -289.54,37.19 -409.23,-39.89 -147.29,-94.87 -229.7,-281.22 -200.74,-454.02 13.99,-83.47 51.07,-170.5 19.8,-249.15 -56.96,-143.3 -282.59,-134.53 -366.92,-263.64 -63.37,-97.01 -18.33,-228.55 48.49,-323.22 124.7,-176.66 327.06,-301.35 542.95,-313.75 215.88,-12.41 439.17,95.69 547.64,282.75 25,43.14 44.19,90.64 47.94,140.37 6.27,83.14 -30.65,163.86 -32.99,247.2 -3.74,132.96 78.8,250.46 149.04,363.41 70.25,112.96 133.01,250 87.25,374.91 -27.71,75.6 -92.56,133.44 -165.72,167.13 -41.19,18.96 -84.95,31.06 -119.96,33.94" /></clipPath><radialGradient
       id="radialGradient110"
       spreadMethod="pad"
       gradientTransform="matrix(-806.605,838.031,1292.62,1244.15,2926.35,2180.18)"
       gradientUnits="userSpaceOnUse"
       r="1"
       cy="0"
       cx="0"
       fy="0"
       fx="0"><stop
         id="stop106"
         offset="0"
         style="stop-opacity:1;stop-color:#1eb6e2" /><stop
         id="stop108"
         offset="1"
         style="stop-opacity:1;stop-color:#9859b3" /></radialGradient><clipPath
       id="clipPath120"
       clipPathUnits="userSpaceOnUse"><path
         id="path118"
         d="M 1032.95,2526.67 C 865.594,2581.22 879.832,2272.77 761.055,2257.52 262.492,2193.5 654.328,1977.49 714.34,1831.87 c 58.433,-141.81 -170.746,-332.26 91.023,-411.35 143.356,-43.31 269.227,5.07 410.247,55.47 141.01,50.4 261.13,175.14 276.03,324.14 9.23,92.21 -31.93,197.08 -118.82,229.29 -30.48,11.31 -65.22,13.48 -91.11,33.13 -42.32,32.12 -42.65,94.9 -35.06,147.48 7.6,52.56 2.07,158.42 -28.94,201.53 -66.28,92.15 -153.2,104.83 -184.76,115.11" /></clipPath><radialGradient
       id="radialGradient128"
       spreadMethod="pad"
       gradientTransform="matrix(390.184,513.4,513.4,-390.184,677.652,1459.45)"
       gradientUnits="userSpaceOnUse"
       r="1"
       cy="0"
       cx="0"
       fy="0"
       fx="0"><stop
         id="stop122"
         offset="0"
         style="stop-opacity:1;stop-color:#9359b3" /><stop
         id="stop124"
         offset="0.00104345"
         style="stop-opacity:1;stop-color:#9359b3" /><stop
         id="stop126"
         offset="1"
         style="stop-opacity:1;stop-color:#f796bb" /></radialGradient><clipPath
       id="clipPath138"
       clipPathUnits="userSpaceOnUse"><path
         id="path136"
         d="m 3581.2,2521.37 c -99.84,-9.25 -168.22,-120.76 -154.98,-220.14 13.23,-99.39 88.93,-181.18 176.36,-230.26 50.02,-28.08 104.85,-47.86 151.51,-81.24 93.37,-66.76 141.78,-177.81 203.41,-274.65 56.82,-89.28 128.7,-170.35 217.51,-227.91 86.78,-56.24 199.9,-88.27 293.64,-44.59 97.18,45.27 144.28,156.55 166.26,261.48 14.79,70.67 22.09,144.18 8,215 -34.72,174.52 -188.91,297.66 -340.92,390.17 -228.01,138.78 -491.79,233.35 -720.79,212.14" /></clipPath><linearGradient
       id="linearGradient146"
       spreadMethod="pad"
       gradientTransform="matrix(-1211.62,1098.67,1098.67,1211.62,5024.07,1196.66)"
       gradientUnits="userSpaceOnUse"
       y2="0"
       x2="1"
       y1="0"
       x1="0"><stop
         id="stop140"
         offset="0"
         style="stop-opacity:1;stop-color:#9359b3" /><stop
         id="stop142"
         offset="0.00104345"
         style="stop-opacity:1;stop-color:#9359b3" /><stop
         id="stop144"
         offset="1"
         style="stop-opacity:1;stop-color:#f796bb" /></linearGradient><clipPath
       id="clipPath156"
       clipPathUnits="userSpaceOnUse"><path
         id="path154"
         d="m 3491.39,1435.52 c -26.13,13.31 -49.97,30.45 -73.25,48.29 -87.2,66.82 -209.48,83.42 -321.33,73.55 -248.65,-21.96 -493.47,-166.95 -594.35,-395.28 -25.88,-58.53 -43.63,-123.51 -89.23,-168.408 C 2328.69,910.43 2190.16,930.898 2075.4,960.961 1960.64,991 1827.24,1021.62 1732.48,950.25 1628.35,871.82 1632.39,709.531 1689.89,592.551 c 38.96,-79.27 104.81,-153.391 191.95,-167.86 83.33,-13.832 165.27,29.52 233.38,79.489 68.1,49.968 132.35,109.281 212.68,135.422 110.26,35.878 229.38,3.117 345.04,-5.211 115.66,-8.332 253.31,23.14 298.05,130.129 33,78.921 2.93,172.671 32.31,253.02 22.2,60.72 79.62,107.08 143.64,116.01 69.23,9.65 136.71,-21.22 202.22,-45.56 65.52,-24.33 141.58,-41.94 202.9,-8.4 77.61,42.47 95.04,154.11 56.47,233.74 -28.65,59.11 -79.58,103.04 -117.14,122.19" /></clipPath><linearGradient
       id="linearGradient162"
       spreadMethod="pad"
       gradientTransform="matrix(1978.59,0,0,-1978.59,1649.7,991.03)"
       gradientUnits="userSpaceOnUse"
       y2="0"
       x2="1"
       y1="0"
       x1="0"><stop
         id="stop158"
         offset="0"
         style="stop-opacity:1;stop-color:#f68332" /><stop
         id="stop160"
         offset="1"
         style="stop-opacity:1;stop-color:#da3aa5" /></linearGradient><clipPath
       id="clipPath172"
       clipPathUnits="userSpaceOnUse"><path
         id="path170"
         d="m 1295.3,1090.61 c -90.91,55.61 -209.72,41.62 -316.206,37.15 -72.61,-3.05 -148.344,-15.38 -206.254,-59.31 C 676.406,995.32 655.586,857.148 573.551,768.18 544.48,736.66 507.902,711.57 485.035,675.289 c -41.394,-65.629 -26.57,-156.488 21.91,-217.098 48.481,-60.589 124.243,-94.14 200.606,-107.941 58.5,-10.559 123.004,-9.602 172.187,23.789 63.735,43.281 84.317,131.609 67.621,206.82 -11.832,53.313 -37.254,115.7 -1.464,156.95 21.25,24.48 56.925,30.222 89.325,29.441 71.61,-1.719 141.52,-27.309 213.1,-24.738 71.57,2.547 151.48,48.91 152.74,120.519 0.36,20.731 -5.98,40.949 -13.02,60.449 -23.3,64.7 -45.33,138.13 -92.74,167.13" /></clipPath><linearGradient
       id="linearGradient178"
       spreadMethod="pad"
       gradientTransform="matrix(940.169,0,0,-940.169,460.903,738.47)"
       gradientUnits="userSpaceOnUse"
       y2="0"
       x2="1"
       y1="0"
       x1="0"><stop
         id="stop174"
         offset="0"
         style="stop-opacity:1;stop-color:#fcd444" /><stop
         id="stop176"
         offset="1"
         style="stop-opacity:1;stop-color:#f24bae" /></linearGradient><clipPath
       id="clipPath188"
       clipPathUnits="userSpaceOnUse"><path
         id="path186"
         d="m 4066.74,418.121 c 146.94,93.848 327.88,117.598 495.75,70.5 12.25,-3.441 24.67,-6.289 37.29,-8.422 71.69,-12.097 152.13,2.973 201.46,56.352 39.56,42.808 53.78,104.25 50.89,162.48 -5.03,100.739 -59.24,197.879 -142.34,255.059 -79.57,54.73 -178.86,71.96 -264.64,116.29 -107.81,55.7 -209.06,157.28 -328.5,135.95 -61.5,-10.98 -111.87,-53.61 -158.97,-94.63 -125.88,-109.59 -252.17,-219.591 -362.56,-344.759 -43.67,-49.543 -86.57,-105.64 -92.01,-171.441 -5.45,-65.949 29.43,-130.859 80,-173.539 50.57,-42.691 115.06,-65.691 179.91,-78.949 60.26,-12.332 124.3,-16.711 182.16,4.199 42.98,15.527 79.8,43.937 118.16,68.73 1.13,0.731 2.27,1.457 3.4,2.18" /></clipPath><radialGradient
       id="radialGradient194"
       spreadMethod="pad"
       gradientTransform="matrix(-266.351,720.712,1035.67,382.749,4337.01,448.98)"
       gradientUnits="userSpaceOnUse"
       r="1"
       cy="0"
       cx="0"
       fy="0"
       fx="0"><stop
         id="stop190"
         offset="0"
         style="stop-opacity:1;stop-color:#864aaa" /><stop
         id="stop192"
         offset="1"
         style="stop-opacity:1;stop-color:#82d5ce" /></radialGradient><clipPath
       id="clipPath204"
       clipPathUnits="userSpaceOnUse"><path
         id="path202"
         d="m 5181.87,3723.67 c 72.53,-220.72 145.07,-441.43 217.6,-662.14 30.9,-94.02 62.88,-190.09 123.65,-268.2 60.76,-78.12 157.02,-136.07 255.25,-124.1 68.43,8.35 129.68,49.48 174.66,101.73 145.04,168.45 125.07,417.63 177.66,633.6 70.67,290.26 284.37,560.1 231.43,854.11 -42.15,234.21 -266.31,415.71 -503.89,429.31 -237.56,13.59 -471.37,-128.38 -588.97,-335.25 -117.61,-206.87 -139,-472 -87.39,-629.06" /></clipPath><linearGradient
       id="linearGradient212"
       spreadMethod="pad"
       gradientTransform="matrix(1215.01,0,0,-1215.01,5155.45,3678.27)"
       gradientUnits="userSpaceOnUse"
       y2="0"
       x2="1"
       y1="0"
       x1="0"><stop
         id="stop206"
         offset="0"
         style="stop-opacity:1;stop-color:#1bb18f" /><stop
         id="stop208"
         offset="0.00626237"
         style="stop-opacity:1;stop-color:#1bb18f" /><stop
         id="stop210"
         offset="1"
         style="stop-opacity:1;stop-color:#2cbbe4" /></linearGradient><clipPath
       id="clipPath222"
       clipPathUnits="userSpaceOnUse"><path
         id="path220"
         d="m 7446.28,4467.01 c -279.08,-3.17 -563.48,-121.12 -731.77,-343.77 -168.28,-222.65 -198.55,-552.57 -40.97,-782.92 157.58,-230.35 507.68,-316.26 736.23,-156.08 48.81,34.21 91.78,78.57 116.74,132.72 31.78,69 32.15,147.66 45.91,222.36 31.63,171.73 133.55,320.57 213.68,475.71 30.65,59.33 59.05,125.25 46.66,190.86 -8.82,46.82 -37.74,87.61 -71.33,121.39 -97.07,97.6 -240.31,140.59 -315.15,139.73" /></clipPath><linearGradient
       id="linearGradient228"
       spreadMethod="pad"
       gradientTransform="matrix(1265.36,0,0,-1265.36,6570.38,3784.58)"
       gradientUnits="userSpaceOnUse"
       y2="0"
       x2="1"
       y1="0"
       x1="0"><stop
         id="stop224"
         offset="0"
         style="stop-opacity:1;stop-color:#1eb6e2" /><stop
         id="stop226"
         offset="1"
         style="stop-opacity:1;stop-color:#9859b3" /></linearGradient><clipPath
       id="clipPath238"
       clipPathUnits="userSpaceOnUse"><path
         id="path236"
         d="m 8184.6,4365.23 c 62.66,157.32 229.74,256.16 398.12,273.94 98.13,10.35 198.68,-3.09 290.62,-38.87 81.69,-31.78 158.25,-82.8 206.53,-155.97 48.27,-73.19 64.5,-170.39 28.74,-250.42 -45.25,-101.25 -157.36,-152.62 -262.3,-188.44 -46.26,-15.78 -100.23,-29.45 -141.44,-3.2 -36.13,23.03 -49.3,68.76 -75.69,102.51 -45.46,58.17 -124.68,75.4 -197.27,88.78 -57.47,10.59 -114.92,21.17 -172.38,31.75 -17.25,3.19 -35.04,6.58 -49.55,16.42 -48.2,32.67 -31.96,106.97 -25.38,123.5" /></clipPath><linearGradient
       id="linearGradient244"
       spreadMethod="pad"
       gradientTransform="matrix(951.361,0,0,-951.361,8176.6,4315.04)"
       gradientUnits="userSpaceOnUse"
       y2="0"
       x2="1"
       y1="0"
       x1="0"><stop
         id="stop240"
         offset="0"
         style="stop-opacity:1;stop-color:#f68332" /><stop
         id="stop242"
         offset="1"
         style="stop-opacity:1;stop-color:#da3aa5" /></linearGradient><clipPath
       id="clipPath254"
       clipPathUnits="userSpaceOnUse"><path
         id="path252"
         d="m 5095.87,2116.6 c -124.53,-102.4 -147.52,-355.99 -147.65,-578.28 -0.09,-177.9 17.48,-358.27 80.83,-524.51 63.33,-166.228 176.24,-318.189 332.67,-402.9 156.44,-84.699 358.46,-93.219 509.17,1.281 150.72,94.508 231.37,298.539 163.49,462.979 -46.12,111.73 -147.03,189.7 -221.49,284.93 -126.14,161.32 -173.77,368.44 -221.91,567.47 -9.69,40.08 -19.83,80.86 -41.33,116.07 -47.9,78.46 -143.68,115.02 -235.14,124.44 -68.84,7.07 -188.27,-26.51 -218.64,-51.48" /></clipPath><radialGradient
       id="radialGradient260"
       spreadMethod="pad"
       gradientTransform="matrix(-1016.54,-954.928,-954.928,1016.54,5860.28,1696.1)"
       gradientUnits="userSpaceOnUse"
       r="1"
       cy="0"
       cx="0"
       fy="0"
       fx="0"><stop
         id="stop256"
         offset="0"
         style="stop-opacity:1;stop-color:#1eb6e2" /><stop
         id="stop258"
         offset="1"
         style="stop-opacity:1;stop-color:#9859b3" /></radialGradient><clipPath
       id="clipPath270"
       clipPathUnits="userSpaceOnUse"><path
         id="path268"
         d="m 6574.27,2747.43 c -276.83,-31.53 -535.94,-193.68 -685.31,-428.87 -43,-67.7 -74.47,-163.8 -19.1,-221.8 64.81,-67.87 176.34,-18.24 259.96,24.34 99.48,50.66 206.5,86.47 316.44,105.87 88.47,15.62 209.76,-2.27 222.39,-91.22 12.28,-86.48 -90.11,-136.56 -163.53,-183.87 -75.48,-48.62 -135.06,-121.5 -167.7,-205.12 -14.29,-36.6 -23.1,-79.38 -4.65,-114.05 33.9,-63.65 129.22,-54.63 193.29,-21.54 131.24,67.77 229.84,196.12 371.85,236.7 25.39,7.25 53.05,11.36 77.83,2.28 73.38,-26.83 64.62,-135.24 27.46,-203.96 -37.17,-68.73 -90.49,-145.21 -60.71,-217.44 31.05,-75.29 139.78,-89.16 210.02,-47.94 70.22,41.22 110.64,117.7 147.51,190.31 71.36,140.51 142.7,281.02 214.05,421.54 15.94,31.36 32.21,64.04 33.25,99.2 1.86,62.2 -46.28,117.5 -103.49,141.94 -57.22,24.45 -121.76,23.94 -183.8,19.41 -58.47,-4.27 -120.15,-11.22 -173.26,13.61 -100.29,46.91 -119.73,193.73 -60.42,287.24 39.51,62.31 108.73,125.76 82.91,194.9 -22.56,60.34 -101.66,72.7 -166.05,70.52 -131.75,-4.46 -255.19,-59.11 -368.94,-72.05" /></clipPath><linearGradient
       id="linearGradient278"
       spreadMethod="pad"
       gradientTransform="matrix(1707.15,0,0,-1707.15,5840.22,2088.86)"
       gradientUnits="userSpaceOnUse"
       y2="0"
       x2="1"
       y1="0"
       x1="0"><stop
         id="stop272"
         offset="0"
         style="stop-opacity:1;stop-color:#f685c8" /><stop
         id="stop274"
         offset="0.00104401"
         style="stop-opacity:1;stop-color:#f685c8" /><stop
         id="stop276"
         offset="1"
         style="stop-opacity:1;stop-color:#f46a4f" /></linearGradient><clipPath
       id="clipPath288"
       clipPathUnits="userSpaceOnUse"><path
         id="path286"
         d="m 8605.24,3812.69 c -210.23,49.54 -397.9,-174.09 -496.07,-366.46 -48.49,-94.99 -82.29,-199.1 -84.69,-305.72 -3.19,-142.33 52.09,-285.11 150.3,-388.18 98.21,-103.07 238.14,-165.18 380.47,-168.85 116.09,-3.01 238.82,36.41 310.71,127.59 71.91,91.19 75.07,238.54 -11.46,315.99 -52.21,46.73 -124.5,61.49 -190.26,85.73 -65.74,24.23 -133.99,68.14 -146.44,137.1 -14.49,80.15 53.03,151.46 122.16,194.54 69.13,43.08 149.79,77.64 190.85,148 15.17,26.01 23.85,57.5 15.7,86.49 -11.51,40.88 -52.29,65.91 -91.63,81.98 -58.7,23.98 -119.02,44.58 -149.64,51.79" /></clipPath><linearGradient
       id="linearGradient296"
       spreadMethod="pad"
       gradientTransform="matrix(575.01,862.513,862.513,-575.01,8147.39,2574.31)"
       gradientUnits="userSpaceOnUse"
       y2="0"
       x2="1"
       y1="0"
       x1="0"><stop
         id="stop290"
         offset="0"
         style="stop-opacity:1;stop-color:#9359b3" /><stop
         id="stop292"
         offset="0.00104345"
         style="stop-opacity:1;stop-color:#9359b3" /><stop
         id="stop294"
         offset="1"
         style="stop-opacity:1;stop-color:#f796bb" /></linearGradient><clipPath
       id="clipPath306"
       clipPathUnits="userSpaceOnUse"><path
         id="path304"
         d="m 7978.73,2278.9 c -64.02,-47.98 -155.32,-174.37 -141.61,-286.99 13.72,-112.6 89.36,-212.72 187.73,-269.21 75.2,-43.2 171.84,-61.9 248.13,-20.65 75.94,41.07 112.5,128.73 173.43,189.89 81.23,81.51 210.38,111.25 319.08,73.47 52.53,-18.26 99.36,-50.46 151.95,-68.51 148.96,-51.13 335.02,42.1 371.09,195.39 36.09,153.28 -103.06,325.21 -259.82,310.28 -116.26,-11.06 -208.03,-105.1 -320.76,-135.61 -107.46,-29.07 -296.68,66.78 -393.03,122.53 -49.99,28.91 -279.99,-68.51 -336.19,-110.59" /></clipPath><linearGradient
       id="linearGradient312"
       spreadMethod="pad"
       gradientTransform="matrix(965.192,1037.07,1037.07,-965.192,8116.43,1609.61)"
       gradientUnits="userSpaceOnUse"
       y2="0"
       x2="1"
       y1="0"
       x1="0"><stop
         id="stop308"
         offset="0"
         style="stop-opacity:1;stop-color:#97c3eb" /><stop
         id="stop310"
         offset="1"
         style="stop-opacity:1;stop-color:#f8a2d5" /></linearGradient><clipPath
       id="clipPath322"
       clipPathUnits="userSpaceOnUse"><path
         id="path320"
         d="m 8697.77,1650.01 c -101.93,16.89 -211.63,-27.79 -272.73,-111.1 -61.12,-83.3 -70.8,-201.36 -24.08,-293.5 23.27,-45.89 58.68,-84.59 83.62,-129.59 67.25,-121.308 45.11,-285.621 -51.88,-384.789 -51.85,-53.039 -126.8,-97.359 -133.37,-171.23 -2.54,-28.571 6.39,-57.102 19.39,-82.66 50,-98.282 155.74,-155.922 261.41,-187.411 92.34,-27.519 192.76,-39.359 284.51,-9.89 189.97,61.019 283.84,273.379 326.5,468.308 42.81,195.602 55.83,407.072 -25.93,589.852 -81.76,182.78 -280.06,324.4 -467.44,312.01" /></clipPath><linearGradient
       id="linearGradient328"
       spreadMethod="pad"
       gradientTransform="matrix(-739.297,1560.74,1560.74,739.297,9035.85,287.17)"
       gradientUnits="userSpaceOnUse"
       y2="0"
       x2="1"
       y1="0"
       x1="0"><stop
         id="stop324"
         offset="0"
         style="stop-opacity:1;stop-color:#1eb6e2" /><stop
         id="stop326"
         offset="1"
         style="stop-opacity:1;stop-color:#9859b3" /></linearGradient><clipPath
       id="clipPath338"
       clipPathUnits="userSpaceOnUse"><path
         id="path336"
         d="m 7788.6,1305.85 c -123.59,87.75 -299.19,95.1 -429.68,17.97 -102.86,-60.79 -175.06,-166.12 -281.72,-219.95 -96.94,-48.94 -210.44,-49.48 -315.23,-77.97 -92.94,-25.28 -179.63,-73.259 -250.39,-138.63 -65.89,-60.86 -120.34,-154.77 -85.14,-237.29 25.7,-60.238 90.04,-92.699 149.46,-120.25 255.28,-118.351 535.1,-239.578 808.94,-174.82 111.11,26.262 213.36,82.219 305.86,149.172 137.09,99.188 260.8,233.227 293.98,399.168 33.17,165.94 -75.4,316.92 -196.08,402.6" /></clipPath><linearGradient
       id="linearGradient346"
       spreadMethod="pad"
       gradientTransform="matrix(1427.93,-370.258,-370.258,-1427.93,6507.06,1079)"
       gradientUnits="userSpaceOnUse"
       y2="0"
       x2="1"
       y1="0"
       x1="0"><stop
         id="stop340"
         offset="0"
         style="stop-opacity:1;stop-color:#9359b3" /><stop
         id="stop342"
         offset="0.00104345"
         style="stop-opacity:1;stop-color:#9359b3" /><stop
         id="stop344"
         offset="1"
         style="stop-opacity:1;stop-color:#f796bb" /></linearGradient></defs><g
     transform="matrix(1.3333333,0,0,-1.3333333,0,666.66667)"
     id="g10"><g
       transform="scale(0.1)"
       id="g12"><g
         id="g14"><g
           clip-path="url(#clipPath20)"
           id="g16"><path
             id="path28"
             style="fill:url(#linearGradient26);fill-opacity:1;fill-rule:nonzero;stroke:none"
             d="m 925.512,4466.36 c -146.028,-11.88 -282.129,-97.68 -385.93,-201.08 -103.785,-103.4 -158.918,-268.92 -94.859,-400.69 29.601,-60.87 81.457,-108.97 139.918,-143.07 100.699,-58.75 231.281,-76.75 333.968,-21.57 109.191,58.68 168.011,186.12 276.991,245.22 60.08,32.6 129.7,41.22 196.81,54.16 95.79,18.49 192.66,48.45 266.9,111.74 74.24,63.27 121.13,166.22 95.2,260.25 -27.8,100.92 -131.61,166.06 -235.32,180.21 -103.72,14.13 -208.2,-12.67 -309.18,-40.23 -100.98,-27.56 -203.98,-38.4 -284.498,-44.94" /></g></g><g
         id="g30"><g
           clip-path="url(#clipPath36)"
           id="g32"><path
             id="path46"
             style="fill:url(#linearGradient44);fill-opacity:1;fill-rule:nonzero;stroke:none"
             d="m 2540.33,4590.59 c -43.86,-17.79 -98.42,-59.16 -126.77,-108.13 -34.55,-59.66 24.6,-131.21 23.94,-200.16 -0.5,-52.93 -37.8,-99.87 -83.07,-127.3 -45.27,-27.44 -98.02,-39.14 -149.42,-51.79 -66.6,-16.4 -133.66,-35.51 -191.94,-71.67 -58.28,-36.17 -107.53,-91.8 -121.85,-158.87 -16.03,-75.12 13.22,-152.8 52.69,-218.69 24.11,-40.27 54.73,-80.12 98.69,-96.58 86.38,-32.35 176.53,37.35 268.56,43.81 112.68,7.91 207.39,-77.92 311.88,-120.83 152.32,-62.54 332.15,-30.5 472.94,54.91 79.46,48.21 151.04,115.42 185.09,201.9 34.04,86.49 23.81,193.95 -41.04,260.53 -64.48,66.2 -163.81,79.4 -252.87,104.01 -89.06,24.61 -186.06,79.51 -196.44,171.33 -6.22,55.05 21.17,107.46 38.07,160.22 16.9,52.76 19.84,119.26 -22.77,154.68 -19.15,15.92 -44.32,22.45 -68.92,26.37 -77.08,12.28 -154.77,-6.72 -196.77,-23.74" /></g></g><g
         id="g48"><g
           clip-path="url(#clipPath54)"
           id="g50"><path
             id="path62"
             style="fill:url(#linearGradient60);fill-opacity:1;fill-rule:nonzero;stroke:none"
             d="m 3749.01,4594.4 c -147.73,13.81 -277.6,-23.46 -362.97,-155.95 -26.36,-40.91 -45.49,-94.99 -37.65,-147.84 11.24,-75.44 71.78,-119.34 128.55,-134.26 143.6,-37.74 292.15,42.56 437.26,16.98 92.45,-16.29 177.44,-74.48 267.24,-107.91 179.48,-66.79 379.5,-29.22 538.01,101.06 49.34,40.56 96.38,92.38 119.77,162.93 23.38,70.55 16.89,162.98 -27.67,212.36 -23.73,26.27 -54.8,37.58 -85.28,44.09 -225.1,48.11 -453.43,-127.14 -677.5,-71.32 -126.82,31.59 -239.22,74.2 -299.76,79.86" /></g></g><g
         id="g64"><g
           clip-path="url(#clipPath70)"
           id="g66"><path
             id="path78"
             style="fill:url(#radialGradient76);fill-opacity:1;fill-rule:nonzero;stroke:none"
             d="m 4385.7,3616.97 c -41.12,0.78 -81.09,11.3 -118.71,27.91 -58.37,25.76 -127.71,27.94 -189.96,10.82 -82.98,-22.81 -154.72,-75.89 -215.58,-136.73 -72.07,-72.08 -134.01,-161.4 -131.22,-267.61 1.2,-45.89 16.84,-90.85 47.01,-125.45 75.16,-86.22 182.73,-55.1 279.9,-67.33 102.48,-12.89 193.59,-75.53 260.75,-153.99 67.14,-78.48 113.34,-172.36 157.18,-265.87 17.87,-38.1 39,-79.77 78.29,-94.82 20.99,-8.05 44.26,-7.1 66.61,-4.62 240.38,26.68 447.84,236.11 472.21,476.76 24.38,240.65 -136.86,487.43 -367.03,561.77 -93.23,30.11 -192.6,33.99 -290.51,37.62 -16.8,0.63 -33.58,1.25 -48.94,1.54" /></g></g><g
         id="g80"><g
           clip-path="url(#clipPath86)"
           id="g82"><path
             id="path96"
             style="fill:url(#linearGradient94);fill-opacity:1;fill-rule:nonzero;stroke:none"
             d="m 935.602,3389.58 c -6.676,6.24 -20.657,12.29 -38.543,17.6 -88.024,26.15 -182.993,11.24 -261.246,-36.82 -69.344,-42.6 -148.833,-101.96 -209.243,-201.45 -85.949,-141.53 -95.73,-326.41 -25.199,-476.23 43.289,-91.93 140.176,-177.77 236.883,-146.56 72.723,23.47 110.254,101.01 147.559,167.71 37.304,66.71 97.886,137.07 173.734,127.63 87.263,-10.89 123.433,-113.91 177.903,-182.95 79.64,-100.92 226.58,-137.34 348.9,-97.81 122.33,39.54 216.9,146.96 254.56,269.87 37.66,122.91 21.98,258.6 -29.16,376.54 -44.93,103.61 -120.05,198.07 -222.62,245.28 -119.82,55.17 -279.23,34.49 -354.97,-81.68 -23.18,-35.57 -63.5,-57.84 -105.86,-54.9 -50.484,3.49 -58.96,42.18 -92.698,73.77" /></g></g><g
         id="g98"><g
           clip-path="url(#clipPath104)"
           id="g100"><path
             id="path112"
             style="fill:url(#radialGradient110);fill-opacity:1;fill-rule:nonzero;stroke:none"
             d="m 2972.91,3266.5 c -50.62,4.17 -100.06,15.97 -147.55,33.96 -132.61,50.28 -289.54,37.19 -409.23,-39.89 -147.29,-94.87 -229.7,-281.22 -200.74,-454.02 13.99,-83.47 51.07,-170.5 19.8,-249.15 -56.96,-143.3 -282.59,-134.53 -366.92,-263.64 -63.37,-97.01 -18.33,-228.55 48.49,-323.22 124.7,-176.66 327.06,-301.35 542.95,-313.75 215.88,-12.41 439.17,95.69 547.64,282.75 25,43.14 44.19,90.64 47.94,140.37 6.27,83.14 -30.65,163.86 -32.99,247.2 -3.74,132.96 78.8,250.46 149.04,363.41 70.25,112.96 133.01,250 87.25,374.91 -27.71,75.6 -92.56,133.44 -165.72,167.13 -41.19,18.96 -84.95,31.06 -119.96,33.94" /></g></g><g
         id="g114"><g
           clip-path="url(#clipPath120)"
           id="g116"><path
             id="path130"
             style="fill:url(#radialGradient128);fill-opacity:1;fill-rule:nonzero;stroke:none"
             d="M 1032.95,2526.67 C 865.594,2581.22 879.832,2272.77 761.055,2257.52 262.492,2193.5 654.328,1977.49 714.34,1831.87 c 58.433,-141.81 -170.746,-332.26 91.023,-411.35 143.356,-43.31 269.227,5.07 410.247,55.47 141.01,50.4 261.13,175.14 276.03,324.14 9.23,92.21 -31.93,197.08 -118.82,229.29 -30.48,11.31 -65.22,13.48 -91.11,33.13 -42.32,32.12 -42.65,94.9 -35.06,147.48 7.6,52.56 2.07,158.42 -28.94,201.53 -66.28,92.15 -153.2,104.83 -184.76,115.11" /></g></g><g
         id="g132"><g
           clip-path="url(#clipPath138)"
           id="g134"><path
             id="path148"
             style="fill:url(#linearGradient146);fill-opacity:1;fill-rule:nonzero;stroke:none"
             d="m 3581.2,2521.37 c -99.84,-9.25 -168.22,-120.76 -154.98,-220.14 13.23,-99.39 88.93,-181.18 176.36,-230.26 50.02,-28.08 104.85,-47.86 151.51,-81.24 93.37,-66.76 141.78,-177.81 203.41,-274.65 56.82,-89.28 128.7,-170.35 217.51,-227.91 86.78,-56.24 199.9,-88.27 293.64,-44.59 97.18,45.27 144.28,156.55 166.26,261.48 14.79,70.67 22.09,144.18 8,215 -34.72,174.52 -188.91,297.66 -340.92,390.17 -228.01,138.78 -491.79,233.35 -720.79,212.14" /></g></g><g
         id="g150"><g
           clip-path="url(#clipPath156)"
           id="g152"><path
             id="path164"
             style="fill:url(#linearGradient162);fill-opacity:1;fill-rule:nonzero;stroke:none"
             d="m 3491.39,1435.52 c -26.13,13.31 -49.97,30.45 -73.25,48.29 -87.2,66.82 -209.48,83.42 -321.33,73.55 -248.65,-21.96 -493.47,-166.95 -594.35,-395.28 -25.88,-58.53 -43.63,-123.51 -89.23,-168.408 C 2328.69,910.43 2190.16,930.898 2075.4,960.961 1960.64,991 1827.24,1021.62 1732.48,950.25 1628.35,871.82 1632.39,709.531 1689.89,592.551 c 38.96,-79.27 104.81,-153.391 191.95,-167.86 83.33,-13.832 165.27,29.52 233.38,79.489 68.1,49.968 132.35,109.281 212.68,135.422 110.26,35.878 229.38,3.117 345.04,-5.211 115.66,-8.332 253.31,23.14 298.05,130.129 33,78.921 2.93,172.671 32.31,253.02 22.2,60.72 79.62,107.08 143.64,116.01 69.23,9.65 136.71,-21.22 202.22,-45.56 65.52,-24.33 141.58,-41.94 202.9,-8.4 77.61,42.47 95.04,154.11 56.47,233.74 -28.65,59.11 -79.58,103.04 -117.14,122.19" /></g></g><g
         id="g166"><g
           clip-path="url(#clipPath172)"
           id="g168"><path
             id="path180"
             style="fill:url(#linearGradient178);fill-opacity:1;fill-rule:nonzero;stroke:none"
             d="m 1295.3,1090.61 c -90.91,55.61 -209.72,41.62 -316.206,37.15 -72.61,-3.05 -148.344,-15.38 -206.254,-59.31 C 676.406,995.32 655.586,857.148 573.551,768.18 544.48,736.66 507.902,711.57 485.035,675.289 c -41.394,-65.629 -26.57,-156.488 21.91,-217.098 48.481,-60.589 124.243,-94.14 200.606,-107.941 58.5,-10.559 123.004,-9.602 172.187,23.789 63.735,43.281 84.317,131.609 67.621,206.82 -11.832,53.313 -37.254,115.7 -1.464,156.95 21.25,24.48 56.925,30.222 89.325,29.441 71.61,-1.719 141.52,-27.309 213.1,-24.738 71.57,2.547 151.48,48.91 152.74,120.519 0.36,20.731 -5.98,40.949 -13.02,60.449 -23.3,64.7 -45.33,138.13 -92.74,167.13" /></g></g><g
         id="g182"><g
           clip-path="url(#clipPath188)"
           id="g184"><path
             id="path196"
             style="fill:url(#radialGradient194);fill-opacity:1;fill-rule:nonzero;stroke:none"
             d="m 4066.74,418.121 c 146.94,93.848 327.88,117.598 495.75,70.5 12.25,-3.441 24.67,-6.289 37.29,-8.422 71.69,-12.097 152.13,2.973 201.46,56.352 39.56,42.808 53.78,104.25 50.89,162.48 -5.03,100.739 -59.24,197.879 -142.34,255.059 -79.57,54.73 -178.86,71.96 -264.64,116.29 -107.81,55.7 -209.06,157.28 -328.5,135.95 -61.5,-10.98 -111.87,-53.61 -158.97,-94.63 -125.88,-109.59 -252.17,-219.591 -362.56,-344.759 -43.67,-49.543 -86.57,-105.64 -92.01,-171.441 -5.45,-65.949 29.43,-130.859 80,-173.539 50.57,-42.691 115.06,-65.691 179.91,-78.949 60.26,-12.332 124.3,-16.711 182.16,4.199 42.98,15.527 79.8,43.937 118.16,68.73 1.13,0.731 2.27,1.457 3.4,2.18" /></g></g><g
         id="g198"><g
           clip-path="url(#clipPath204)"
           id="g200"><path
             id="path214"
             style="fill:url(#linearGradient212);fill-opacity:1;fill-rule:nonzero;stroke:none"
             d="m 5181.87,3723.67 c 72.53,-220.72 145.07,-441.43 217.6,-662.14 30.9,-94.02 62.88,-190.09 123.65,-268.2 60.76,-78.12 157.02,-136.07 255.25,-124.1 68.43,8.35 129.68,49.48 174.66,101.73 145.04,168.45 125.07,417.63 177.66,633.6 70.67,290.26 284.37,560.1 231.43,854.11 -42.15,234.21 -266.31,415.71 -503.89,429.31 -237.56,13.59 -471.37,-128.38 -588.97,-335.25 -117.61,-206.87 -139,-472 -87.39,-629.06" /></g></g><g
         id="g216"><g
           clip-path="url(#clipPath222)"
           id="g218"><path
             id="path230"
             style="fill:url(#linearGradient228);fill-opacity:1;fill-rule:nonzero;stroke:none"
             d="m 7446.28,4467.01 c -279.08,-3.17 -563.48,-121.12 -731.77,-343.77 -168.28,-222.65 -198.55,-552.57 -40.97,-782.92 157.58,-230.35 507.68,-316.26 736.23,-156.08 48.81,34.21 91.78,78.57 116.74,132.72 31.78,69 32.15,147.66 45.91,222.36 31.63,171.73 133.55,320.57 213.68,475.71 30.65,59.33 59.05,125.25 46.66,190.86 -8.82,46.82 -37.74,87.61 -71.33,121.39 -97.07,97.6 -240.31,140.59 -315.15,139.73" /></g></g><g
         id="g232"><g
           clip-path="url(#clipPath238)"
           id="g234"><path
             id="path246"
             style="fill:url(#linearGradient244);fill-opacity:1;fill-rule:nonzero;stroke:none"
             d="m 8184.6,4365.23 c 62.66,157.32 229.74,256.16 398.12,273.94 98.13,10.35 198.68,-3.09 290.62,-38.87 81.69,-31.78 158.25,-82.8 206.53,-155.97 48.27,-73.19 64.5,-170.39 28.74,-250.42 -45.25,-101.25 -157.36,-152.62 -262.3,-188.44 -46.26,-15.78 -100.23,-29.45 -141.44,-3.2 -36.13,23.03 -49.3,68.76 -75.69,102.51 -45.46,58.17 -124.68,75.4 -197.27,88.78 -57.47,10.59 -114.92,21.17 -172.38,31.75 -17.25,3.19 -35.04,6.58 -49.55,16.42 -48.2,32.67 -31.96,106.97 -25.38,123.5" /></g></g><g
         id="g248"><g
           clip-path="url(#clipPath254)"
           id="g250"><path
             id="path262"
             style="fill:url(#radialGradient260);fill-opacity:1;fill-rule:nonzero;stroke:none"
             d="m 5095.87,2116.6 c -124.53,-102.4 -147.52,-355.99 -147.65,-578.28 -0.09,-177.9 17.48,-358.27 80.83,-524.51 63.33,-166.228 176.24,-318.189 332.67,-402.9 156.44,-84.699 358.46,-93.219 509.17,1.281 150.72,94.508 231.37,298.539 163.49,462.979 -46.12,111.73 -147.03,189.7 -221.49,284.93 -126.14,161.32 -173.77,368.44 -221.91,567.47 -9.69,40.08 -19.83,80.86 -41.33,116.07 -47.9,78.46 -143.68,115.02 -235.14,124.44 -68.84,7.07 -188.27,-26.51 -218.64,-51.48" /></g></g><g
         id="g264"><g
           clip-path="url(#clipPath270)"
           id="g266"><path
             id="path280"
             style="fill:url(#linearGradient278);fill-opacity:1;fill-rule:nonzero;stroke:none"
             d="m 6574.27,2747.43 c -276.83,-31.53 -535.94,-193.68 -685.31,-428.87 -43,-67.7 -74.47,-163.8 -19.1,-221.8 64.81,-67.87 176.34,-18.24 259.96,24.34 99.48,50.66 206.5,86.47 316.44,105.87 88.47,15.62 209.76,-2.27 222.39,-91.22 12.28,-86.48 -90.11,-136.56 -163.53,-183.87 -75.48,-48.62 -135.06,-121.5 -167.7,-205.12 -14.29,-36.6 -23.1,-79.38 -4.65,-114.05 33.9,-63.65 129.22,-54.63 193.29,-21.54 131.24,67.77 229.84,196.12 371.85,236.7 25.39,7.25 53.05,11.36 77.83,2.28 73.38,-26.83 64.62,-135.24 27.46,-203.96 -37.17,-68.73 -90.49,-145.21 -60.71,-217.44 31.05,-75.29 139.78,-89.16 210.02,-47.94 70.22,41.22 110.64,117.7 147.51,190.31 71.36,140.51 142.7,281.02 214.05,421.54 15.94,31.36 32.21,64.04 33.25,99.2 1.86,62.2 -46.28,117.5 -103.49,141.94 -57.22,24.45 -121.76,23.94 -183.8,19.41 -58.47,-4.27 -120.15,-11.22 -173.26,13.61 -100.29,46.91 -119.73,193.73 -60.42,287.24 39.51,62.31 108.73,125.76 82.91,194.9 -22.56,60.34 -101.66,72.7 -166.05,70.52 -131.75,-4.46 -255.19,-59.11 -368.94,-72.05" /></g></g><g
         id="g282"><g
           clip-path="url(#clipPath288)"
           id="g284"><path
             id="path298"
             style="fill:url(#linearGradient296);fill-opacity:1;fill-rule:nonzero;stroke:none"
             d="m 8605.24,3812.69 c -210.23,49.54 -397.9,-174.09 -496.07,-366.46 -48.49,-94.99 -82.29,-199.1 -84.69,-305.72 -3.19,-142.33 52.09,-285.11 150.3,-388.18 98.21,-103.07 238.14,-165.18 380.47,-168.85 116.09,-3.01 238.82,36.41 310.71,127.59 71.91,91.19 75.07,238.54 -11.46,315.99 -52.21,46.73 -124.5,61.49 -190.26,85.73 -65.74,24.23 -133.99,68.14 -146.44,137.1 -14.49,80.15 53.03,151.46 122.16,194.54 69.13,43.08 149.79,77.64 190.85,148 15.17,26.01 23.85,57.5 15.7,86.49 -11.51,40.88 -52.29,65.91 -91.63,81.98 -58.7,23.98 -119.02,44.58 -149.64,51.79" /></g></g><g
         id="g300"><g
           clip-path="url(#clipPath306)"
           id="g302"><path
             id="path314"
             style="fill:url(#linearGradient312);fill-opacity:1;fill-rule:nonzero;stroke:none"
             d="m 7978.73,2278.9 c -64.02,-47.98 -155.32,-174.37 -141.61,-286.99 13.72,-112.6 89.36,-212.72 187.73,-269.21 75.2,-43.2 171.84,-61.9 248.13,-20.65 75.94,41.07 112.5,128.73 173.43,189.89 81.23,81.51 210.38,111.25 319.08,73.47 52.53,-18.26 99.36,-50.46 151.95,-68.51 148.96,-51.13 335.02,42.1 371.09,195.39 36.09,153.28 -103.06,325.21 -259.82,310.28 -116.26,-11.06 -208.03,-105.1 -320.76,-135.61 -107.46,-29.07 -296.68,66.78 -393.03,122.53 -49.99,28.91 -279.99,-68.51 -336.19,-110.59" /></g></g><g
         id="g316"><g
           clip-path="url(#clipPath322)"
           id="g318"><path
             id="path330"
             style="fill:url(#linearGradient328);fill-opacity:1;fill-rule:nonzero;stroke:none"
             d="m 8697.77,1650.01 c -101.93,16.89 -211.63,-27.79 -272.73,-111.1 -61.12,-83.3 -70.8,-201.36 -24.08,-293.5 23.27,-45.89 58.68,-84.59 83.62,-129.59 67.25,-121.308 45.11,-285.621 -51.88,-384.789 -51.85,-53.039 -126.8,-97.359 -133.37,-171.23 -2.54,-28.571 6.39,-57.102 19.39,-82.66 50,-98.282 155.74,-155.922 261.41,-187.411 92.34,-27.519 192.76,-39.359 284.51,-9.89 189.97,61.019 283.84,273.379 326.5,468.308 42.81,195.602 55.83,407.072 -25.93,589.852 -81.76,182.78 -280.06,324.4 -467.44,312.01" /></g></g><g
         id="g332"><g
           clip-path="url(#clipPath338)"
           id="g334"><path
             id="path348"
             style="fill:url(#linearGradient346);fill-opacity:1;fill-rule:nonzero;stroke:none"
             d="m 7788.6,1305.85 c -123.59,87.75 -299.19,95.1 -429.68,17.97 -102.86,-60.79 -175.06,-166.12 -281.72,-219.95 -96.94,-48.94 -210.44,-49.48 -315.23,-77.97 -92.94,-25.28 -179.63,-73.259 -250.39,-138.63 -65.89,-60.86 -120.34,-154.77 -85.14,-237.29 25.7,-60.238 90.04,-92.699 149.46,-120.25 255.28,-118.351 535.1,-239.578 808.94,-174.82 111.11,26.262 213.36,82.219 305.86,149.172 137.09,99.188 260.8,233.227 293.98,399.168 33.17,165.94 -75.4,316.92 -196.08,402.6" /></g></g></g></g></svg>